<svg xmlns="http://www.w3.org/2000/svg" width="92" height="13" fill="none" viewBox="0 0 92 13"><path fill="#000" d="M15.202 2.3C15.8693 2.3 16.4487 2.41 16.94 2.63C17.4387 2.85 17.82 3.16533 18.084 3.576C18.348 3.98667 18.48 4.47433 18.48 5.039C18.48 5.59633 18.348 6.084 18.084 6.502C17.82 6.91267 17.4387 7.228 16.94 7.448C16.4487 7.668 15.8693 7.778 15.202 7.778H13.464V10H12.034V2.3H15.202ZM15.136 6.568C15.7593 6.568 16.2323 6.436 16.555 6.172C16.8777 5.908 17.039 5.53033 17.039 5.039C17.039 4.54767 16.8777 4.17 16.555 3.906C16.2323 3.642 15.7593 3.51 15.136 3.51H13.464V6.568H15.136ZM22.5485 8.911C23.1865 8.911 23.7182 8.69833 24.1435 8.273L24.8695 9.12C24.6129 9.43533 24.2829 9.67367 23.8795 9.835C23.4762 9.99633 23.0215 10.077 22.5155 10.077C21.8702 10.077 21.3019 9.94867 20.8105 9.692C20.3192 9.43533 19.9379 9.07967 19.6665 8.625C19.4025 8.163 19.2705 7.64233 19.2705 7.063C19.2705 6.491 19.3989 5.97767 19.6555 5.523C19.9195 5.061 20.2789 4.70167 20.7335 4.445C21.1955 4.18833 21.7162 4.06 22.2955 4.06C22.8455 4.06 23.3442 4.181 23.7915 4.423C24.2462 4.65767 24.6055 4.99867 24.8695 5.446C25.1335 5.886 25.2655 6.403 25.2655 6.997L20.7665 7.877C20.9059 8.21433 21.1295 8.471 21.4375 8.647C21.7455 8.823 22.1159 8.911 22.5485 8.911ZM22.2955 5.16C21.7895 5.16 21.3789 5.325 21.0635 5.655C20.7555 5.985 20.6015 6.42867 20.6015 6.986V6.997L23.9235 6.359C23.8282 5.99967 23.6339 5.71 23.3405 5.49C23.0545 5.27 22.7062 5.16 22.2955 5.16ZM29.9196 4.06C30.6602 4.06 31.2542 4.27633 31.7016 4.709C32.1489 5.14167 32.3726 5.78333 32.3726 6.634V10H30.9976V6.81C30.9976 6.29667 30.8766 5.91167 30.6346 5.655C30.3926 5.391 30.0479 5.259 29.6006 5.259C29.0946 5.259 28.6949 5.413 28.4016 5.721C28.1082 6.02167 27.9616 6.458 27.9616 7.03V10H26.5866V4.126H27.8956V4.885C28.1229 4.61367 28.4089 4.40833 28.7536 4.269C29.0982 4.12967 29.4869 4.06 29.9196 4.06ZM37.4498 4.06C38.1905 4.06 38.7845 4.27633 39.2318 4.709C39.6792 5.14167 39.9028 5.78333 39.9028 6.634V10H38.5278V6.81C38.5278 6.29667 38.4068 5.91167 38.1648 5.655C37.9228 5.391 37.5782 5.259 37.1308 5.259C36.6248 5.259 36.2252 5.413 35.9318 5.721C35.6385 6.02167 35.4918 6.458 35.4918 7.03V10H34.1168V4.126H35.4258V4.885C35.6532 4.61367 35.9392 4.40833 36.2838 4.269C36.6285 4.12967 37.0172 4.06 37.4498 4.06ZM47.3341 4.126V9.109C47.3341 11.177 46.3185 12.211 44.2871 12.211C43.7518 12.211 43.2385 12.1377 42.7471 11.991C42.2631 11.8517 41.8635 11.6463 41.5481 11.375L42.1641 10.341C42.4135 10.5537 42.7178 10.7223 43.0771 10.847C43.4365 10.9717 43.8141 11.034 44.2101 11.034C44.8115 11.034 45.2515 10.8873 45.5301 10.594C45.8161 10.308 45.9591 9.86433 45.9591 9.263V8.988C45.7391 9.23 45.4715 9.417 45.1561 9.549C44.8408 9.67367 44.4998 9.736 44.1331 9.736C43.3485 9.736 42.7288 9.51967 42.2741 9.087C41.8268 8.65433 41.6031 8.00533 41.6031 7.14V4.126H42.9781V6.964C42.9781 7.48467 43.0955 7.877 43.3301 8.141C43.5721 8.39767 43.9131 8.526 44.3531 8.526C44.8445 8.526 45.2331 8.37567 45.5191 8.075C45.8125 7.77433 45.9591 7.338 45.9591 6.766V4.126H47.3341Z"/><path fill="#000" d="M52.136 3.3C53.1187 3.3 53.8887 3.53467 54.446 4.004C55.0033 4.47333 55.282 5.11867 55.282 5.94C55.282 6.76133 55.0033 7.40667 54.446 7.876C53.8887 8.338 53.1187 8.569 52.136 8.569H50.068V11H49.254V3.3H52.136ZM52.114 7.854C52.8767 7.854 53.4597 7.689 53.863 7.359C54.2663 7.02167 54.468 6.54867 54.468 5.94C54.468 5.31667 54.2663 4.84 53.863 4.51C53.4597 4.17267 52.8767 4.004 52.114 4.004H50.068V7.854H52.114ZM59.3199 10.362C59.6792 10.362 60.0092 10.2997 60.3099 10.175C60.6179 10.043 60.8782 9.85233 61.0909 9.603L61.5309 10.109C61.2742 10.417 60.9552 10.6517 60.5739 10.813C60.1925 10.9743 59.7709 11.055 59.3089 11.055C58.7149 11.055 58.1869 10.9303 57.7249 10.681C57.2629 10.4243 56.9035 10.0723 56.6469 9.625C56.3902 9.17767 56.2619 8.67167 56.2619 8.107C56.2619 7.54233 56.3829 7.03633 56.6249 6.589C56.8742 6.14167 57.2152 5.79333 57.6479 5.544C58.0805 5.29467 58.5719 5.17 59.1219 5.17C59.6352 5.17 60.0972 5.28733 60.5079 5.522C60.9259 5.75667 61.2559 6.083 61.4979 6.501C61.7472 6.919 61.8792 7.39567 61.8939 7.931L57.1419 8.855C57.2885 9.32433 57.5525 9.69467 57.9339 9.966C58.3225 10.23 58.7845 10.362 59.3199 10.362ZM59.1219 5.841C58.7185 5.841 58.3555 5.93633 58.0329 6.127C57.7175 6.31033 57.4682 6.57067 57.2849 6.908C57.1089 7.238 57.0209 7.61933 57.0209 8.052C57.0209 8.162 57.0245 8.24267 57.0319 8.294L61.1129 7.502C61.0249 7.018 60.8012 6.622 60.4419 6.314C60.0825 5.99867 59.6425 5.841 59.1219 5.841ZM64.2315 6.347C64.4149 5.95833 64.6862 5.665 65.0455 5.467C65.4122 5.269 65.8632 5.17 66.3985 5.17V5.929L66.2115 5.918C65.6029 5.918 65.1262 6.105 64.7815 6.479C64.4369 6.853 64.2645 7.37733 64.2645 8.052V11H63.4835V5.214H64.2315V6.347ZM70.1569 11.055C69.5849 11.055 69.0716 10.9303 68.6169 10.681C68.1696 10.4317 67.8176 10.0833 67.5609 9.636C67.3043 9.18133 67.1759 8.67167 67.1759 8.107C67.1759 7.54233 67.3043 7.03633 67.5609 6.589C67.8176 6.14167 68.1696 5.79333 68.6169 5.544C69.0716 5.29467 69.5849 5.17 70.1569 5.17C70.6556 5.17 71.0993 5.269 71.4879 5.467C71.8839 5.65767 72.1956 5.94 72.4229 6.314L71.8399 6.71C71.6493 6.424 71.4073 6.21133 71.1139 6.072C70.8206 5.92533 70.5016 5.852 70.1569 5.852C69.7389 5.852 69.3613 5.94733 69.0239 6.138C68.6939 6.32133 68.4336 6.58533 68.2429 6.93C68.0596 7.27467 67.9679 7.667 67.9679 8.107C67.9679 8.55433 68.0596 8.95033 68.2429 9.295C68.4336 9.63233 68.6939 9.89633 69.0239 10.087C69.3613 10.2703 69.7389 10.362 70.1569 10.362C70.5016 10.362 70.8206 10.2923 71.1139 10.153C71.4073 10.0137 71.6493 9.801 71.8399 9.515L72.4229 9.911C72.1956 10.285 71.8839 10.571 71.4879 10.769C71.0919 10.9597 70.6483 11.055 70.1569 11.055ZM76.8192 5.17C77.5452 5.17 78.1209 5.38267 78.5462 5.808C78.9789 6.226 79.1952 6.83833 79.1952 7.645V11H78.4142V7.722C78.4142 7.12067 78.2639 6.66233 77.9632 6.347C77.6626 6.03167 77.2336 5.874 76.6762 5.874C76.0529 5.874 75.5579 6.061 75.1912 6.435C74.8319 6.80167 74.6522 7.31133 74.6522 7.964V11H73.8712V2.838H74.6522V6.226C74.8649 5.88867 75.1582 5.62833 75.5322 5.445C75.9062 5.26167 76.3352 5.17 76.8192 5.17Z"/><path stroke="#2563EB" stroke-linecap="round" stroke-linejoin="round" d="M9.16666 3.29166H1.83332C1.32706 3.29166 0.916656 3.70207 0.916656 4.20833V8.79166C0.916656 9.29792 1.32706 9.70833 1.83332 9.70833H9.16666C9.67292 9.70833 10.0833 9.29792 10.0833 8.79166V4.20833C10.0833 3.70207 9.67292 3.29166 9.16666 3.29166Z"/><path stroke="#2563EB" stroke-linecap="round" stroke-linejoin="round" d="M0.916656 5.58334H10.0833"/></svg>